REM DIRINDEX 1\2,1\3,1\4,1\5,1\6
REM DIRNAME "folder01","folder02","folder03","folder04","folder05","folder06"
TITLE ""
FILE "Disc1Track67.mp3" MP3
  TRACK 01 AUDIO
    TITLE "3:cjc161_01692"
    INDEX 01 00:00:00
  TRACK 02 AUDIO
    TITLE "4:cjc161_01693"
    INDEX 01 00:01:02
  TRACK 03 AUDIO
    TITLE "5:cjc161_01694"
    INDEX 01 00:02:74
  TRACK 04 AUDIO
    TITLE "0:"
    INDEX 01 00:04:12
  TRACK 05 AUDIO
    TITLE "3:cjc161_01695"
    INDEX 01 00:04:43
  TRACK 06 AUDIO
    TITLE "4:cjc161_01696"
    INDEX 01 00:05:57
  TRACK 07 AUDIO
    TITLE "5:cjc161_01697"
    INDEX 01 00:07:22
  TRACK 08 AUDIO
    TITLE "6:cjc161_01698"
    INDEX 01 00:08:35
  TRACK 09 AUDIO
    TITLE "0:"
    INDEX 01 00:13:34
  TRACK 10 AUDIO
    TITLE "3:cjc161_01699"
    INDEX 01 00:13:66
  TRACK 11 AUDIO
    TITLE "4:cjc161_01700"
    INDEX 01 00:15:31
  TRACK 12 AUDIO
    TITLE "5:cjc161_01701"
    INDEX 01 00:16:23
  TRACK 13 AUDIO
    TITLE "6:cjc161_01702"
    INDEX 01 00:17:64
  TRACK 14 AUDIO
    TITLE "0:"
    INDEX 01 00:22:06
  TRACK 15 AUDIO
    TITLE "3:cjc161_01703"
    INDEX 01 00:22:39
  TRACK 16 AUDIO
    TITLE "4:cjc161_01704"
    INDEX 01 00:23:58
  TRACK 17 AUDIO
    TITLE "5:cjc161_01705"
    INDEX 01 00:26:23
  TRACK 18 AUDIO
    TITLE "6:cjc161_01706"
    INDEX 01 00:27:40
  TRACK 19 AUDIO
    TITLE "0:"
    INDEX 01 00:29:59
  TRACK 20 AUDIO
    TITLE "3:cjc161_01707"
    INDEX 01 00:30:17
  TRACK 21 AUDIO
    TITLE "4:cjc161_01708"
    INDEX 01 00:31:36
  TRACK 22 AUDIO
    TITLE "5:cjc161_01709"
    INDEX 01 00:32:51
  TRACK 23 AUDIO
    TITLE "0:"
    INDEX 01 00:33:69
  TRACK 24 AUDIO
    TITLE "3:cjc161_01710"
    INDEX 01 00:34:33
  TRACK 25 AUDIO
    TITLE "4:cjc161_01711"
    INDEX 01 00:35:60
  TRACK 26 AUDIO
    TITLE "5:cjc161_01712"
    INDEX 01 00:36:65
  TRACK 27 AUDIO
    TITLE "6:cjc161_01713"
    INDEX 01 00:38:17
  TRACK 28 AUDIO
    TITLE "0:"
    INDEX 01 00:43:18
  TRACK 29 AUDIO
    TITLE "3:cjc161_01714"
    INDEX 01 00:43:51
  TRACK 30 AUDIO
    TITLE "4:cjc161_01715"
    INDEX 01 00:45:11
  TRACK 31 AUDIO
    TITLE "5:cjc161_01716"
    INDEX 01 00:46:16
  TRACK 32 AUDIO
    TITLE "6:cjc161_01717"
    INDEX 01 00:47:49
  TRACK 33 AUDIO
    TITLE "0:"
    INDEX 01 00:52:38
  TRACK 34 AUDIO
    TITLE "3:cjc161_01718"
    INDEX 01 00:52:70
  TRACK 35 AUDIO
    TITLE "4:cjc161_01719"
    INDEX 01 00:54:10
  TRACK 36 AUDIO
    TITLE "5:cjc161_01720"
    INDEX 01 00:55:21
  TRACK 37 AUDIO
    TITLE "0:"
    INDEX 01 00:56:36
  TRACK 38 AUDIO
    TITLE "3:cjc161_01721"
    INDEX 01 00:57:02
  TRACK 39 AUDIO
    TITLE "4:cjc161_01722"
    INDEX 01 00:58:23
  TRACK 40 AUDIO
    TITLE "5:cjc161_01723"
    INDEX 01 01:00:20
  TRACK 41 AUDIO
    TITLE "6:cjc161_01724"
    INDEX 01 01:01:41
  TRACK 42 AUDIO
    TITLE "0:"
    INDEX 01 01:05:12
  TRACK 43 AUDIO
    TITLE "3:cjc161_01725"
    INDEX 01 01:05:47
  TRACK 44 AUDIO
    TITLE "4:cjc161_01726"
    INDEX 01 01:06:68
  TRACK 45 AUDIO
    TITLE "5:cjc161_01727"
    INDEX 01 01:08:69
  TRACK 46 AUDIO
    TITLE "6:cjc161_01728"
    INDEX 01 01:10:13
  TRACK 47 AUDIO
    TITLE "0:"
    INDEX 01 01:13:46
  TRACK 48 AUDIO
    TITLE "3:cjc161_01729"
    INDEX 01 01:14:03
  TRACK 49 AUDIO
    TITLE "4:cjc161_01730"
    INDEX 01 01:15:20
  TRACK 50 AUDIO
    TITLE "5:cjc161_01731"
    INDEX 01 01:17:23
  TRACK 51 AUDIO
    TITLE "6:cjc161_01732"
    INDEX 01 01:18:38
  TRACK 52 AUDIO
    TITLE "0:"
    INDEX 01 01:20:35
  TRACK 53 AUDIO
    TITLE "3:cjc161_01733"
    INDEX 01 01:20:66
  TRACK 54 AUDIO
    TITLE "4:cjc161_01734"
    INDEX 01 01:22:14
  TRACK 55 AUDIO
    TITLE "5:cjc161_01735"
    INDEX 01 01:23:08
  TRACK 56 AUDIO
    TITLE "6:cjc161_01736"
    INDEX 01 01:24:29
  TRACK 57 AUDIO
    TITLE "0:"
    INDEX 01 01:29:55
  TRACK 58 AUDIO
    TITLE "3:cjc161_01737"
    INDEX 01 01:30:12
  TRACK 59 AUDIO
    TITLE "4:cjc161_01738"
    INDEX 01 01:31:31
  TRACK 60 AUDIO
    TITLE "5:cjc161_01739"
    INDEX 01 01:33:30
  TRACK 61 AUDIO
    TITLE "6:cjc161_01740"
    INDEX 01 01:34:49
  TRACK 62 AUDIO
    TITLE "0:"
    INDEX 01 01:38:52
